<?xml version="1.0" encoding="UTF-8" standalone="no"?>
<!DOCTYPE svg PUBLIC "-//W3C//DTD SVG 1.1//EN"
 "http://www.w3.org/Graphics/SVG/1.1/DTD/svg11.dtd">
<!-- Generated by graphviz version 2.43.0 (0)
 -->
<!-- Title: %3 Pages: 1 -->
<svg width="323pt" height="188pt"
 viewBox="0.00 0.00 323.49 188.00" xmlns="http://www.w3.org/2000/svg" xmlns:xlink="http://www.w3.org/1999/xlink">
<g id="graph0" class="graph" transform="scale(1 1) rotate(0) translate(4 184)">
<title>%3</title>
<polygon fill="white" stroke="transparent" points="-4,4 -4,-184 319.49,-184 319.49,4 -4,4"/>
<!-- Promotion -->
<g id="node1" class="node">
<title>Promotion</title>
<ellipse fill="none" stroke="black" cx="59.14" cy="-162" rx="59.29" ry="18"/>
<text text-anchor="middle" x="59.14" y="-158.3" font-family="Times,serif" font-size="14.00">Promotion</text>
</g>
<!-- Num Items Purchased -->
<g id="node2" class="node">
<title>Num Items Purchased</title>
<ellipse fill="none" stroke="black" cx="165.14" cy="-90" rx="114.28" ry="18"/>
<text text-anchor="middle" x="165.14" y="-86.3" font-family="Times,serif" font-size="14.00">Num Items Purchased</text>
</g>
<!-- Promotion&#45;&gt;Num Items Purchased -->
<g id="edge1" class="edge">
<title>Promotion&#45;&gt;Num Items Purchased</title>
<path fill="none" stroke="black" d="M82.67,-145.46C96.98,-136.02 115.48,-123.79 131.34,-113.32"/>
<polygon fill="black" stroke="black" points="133.42,-116.15 139.84,-107.71 129.56,-110.3 133.42,-116.15"/>
</g>
<!-- Ticket Size -->
<g id="node5" class="node">
<title>Ticket Size</title>
<ellipse fill="none" stroke="black" cx="165.14" cy="-18" rx="61.99" ry="18"/>
<text text-anchor="middle" x="165.14" y="-14.3" font-family="Times,serif" font-size="14.00">Ticket Size</text>
</g>
<!-- Num Items Purchased&#45;&gt;Ticket Size -->
<g id="edge4" class="edge">
<title>Num Items Purchased&#45;&gt;Ticket Size</title>
<path fill="none" stroke="black" d="M165.14,-71.7C165.14,-63.98 165.14,-54.71 165.14,-46.11"/>
<polygon fill="black" stroke="black" points="168.64,-46.1 165.14,-36.1 161.64,-46.1 168.64,-46.1"/>
</g>
<!-- Tier -->
<g id="node3" class="node">
<title>Tier</title>
<ellipse fill="none" stroke="black" cx="165.14" cy="-162" rx="29.5" ry="18"/>
<text text-anchor="middle" x="165.14" y="-158.3" font-family="Times,serif" font-size="14.00">Tier</text>
</g>
<!-- Tier&#45;&gt;Num Items Purchased -->
<g id="edge2" class="edge">
<title>Tier&#45;&gt;Num Items Purchased</title>
<path fill="none" stroke="black" d="M165.14,-143.7C165.14,-135.98 165.14,-126.71 165.14,-118.11"/>
<polygon fill="black" stroke="black" points="168.64,-118.1 165.14,-108.1 161.64,-118.1 168.64,-118.1"/>
</g>
<!-- Distance -->
<g id="node4" class="node">
<title>Distance</title>
<ellipse fill="none" stroke="black" cx="264.14" cy="-162" rx="51.19" ry="18"/>
<text text-anchor="middle" x="264.14" y="-158.3" font-family="Times,serif" font-size="14.00">Distance</text>
</g>
<!-- Distance&#45;&gt;Num Items Purchased -->
<g id="edge3" class="edge">
<title>Distance&#45;&gt;Num Items Purchased</title>
<path fill="none" stroke="black" d="M242.17,-145.46C228.94,-136.1 211.85,-124.02 197.13,-113.61"/>
<polygon fill="black" stroke="black" points="198.97,-110.63 188.78,-107.71 194.93,-116.35 198.97,-110.63"/>
</g>
</g>
</svg>
