<?xml version="1.0" encoding="UTF-8" standalone="no"?>
<!DOCTYPE svg PUBLIC "-//W3C//DTD SVG 1.1//EN"
 "http://www.w3.org/Graphics/SVG/1.1/DTD/svg11.dtd">
<!-- Generated by graphviz version 2.43.0 (0)
 -->
<!-- Title: %3 Pages: 1 -->
<svg width="479pt" height="188pt"
 viewBox="0.00 0.00 478.89 188.00" xmlns="http://www.w3.org/2000/svg" xmlns:xlink="http://www.w3.org/1999/xlink">
<g id="graph0" class="graph" transform="scale(1 1) rotate(0) translate(4 184)">
<title>%3</title>
<polygon fill="white" stroke="transparent" points="-4,4 -4,-184 474.89,-184 474.89,4 -4,4"/>
<!-- Promotion Offered -->
<g id="node1" class="node">
<title>Promotion Offered</title>
<ellipse fill="none" stroke="black" cx="297.64" cy="-162" rx="96.68" ry="18"/>
<text text-anchor="middle" x="297.64" y="-158.3" font-family="Times,serif" font-size="14.00">Promotion Offered</text>
</g>
<!-- Promotion Redeemed -->
<g id="node2" class="node">
<title>Promotion Redeemed</title>
<ellipse fill="none" stroke="black" cx="297.64" cy="-90" rx="110.48" ry="18"/>
<text text-anchor="middle" x="297.64" y="-86.3" font-family="Times,serif" font-size="14.00">Promotion Redeemed</text>
</g>
<!-- Promotion Offered&#45;&gt;Promotion Redeemed -->
<g id="edge1" class="edge">
<title>Promotion Offered&#45;&gt;Promotion Redeemed</title>
<path fill="none" stroke="black" d="M297.64,-143.7C297.64,-135.98 297.64,-126.71 297.64,-118.11"/>
<polygon fill="black" stroke="black" points="301.14,-118.1 297.64,-108.1 294.14,-118.1 301.14,-118.1"/>
</g>
<!-- Ticket Size (Net Val) -->
<g id="node4" class="node">
<title>Ticket Size (Net Val)</title>
<ellipse fill="none" stroke="black" cx="297.64" cy="-18" rx="105.08" ry="18"/>
<text text-anchor="middle" x="297.64" y="-14.3" font-family="Times,serif" font-size="14.00">Ticket Size (Net Val)</text>
</g>
<!-- Promotion Redeemed&#45;&gt;Ticket Size (Net Val) -->
<g id="edge6" class="edge">
<title>Promotion Redeemed&#45;&gt;Ticket Size (Net Val)</title>
<path fill="none" stroke="black" d="M297.64,-71.7C297.64,-63.98 297.64,-54.71 297.64,-46.11"/>
<polygon fill="black" stroke="black" points="301.14,-46.1 297.64,-36.1 294.14,-46.1 301.14,-46.1"/>
</g>
<!-- Distance to Store -->
<g id="node3" class="node">
<title>Distance to Store</title>
<ellipse fill="none" stroke="black" cx="91.64" cy="-162" rx="91.78" ry="18"/>
<text text-anchor="middle" x="91.64" y="-158.3" font-family="Times,serif" font-size="14.00">Distance to Store</text>
</g>
<!-- Distance to Store&#45;&gt;Promotion Redeemed -->
<g id="edge2" class="edge">
<title>Distance to Store&#45;&gt;Promotion Redeemed</title>
<path fill="none" stroke="black" d="M135.33,-146.15C166.61,-135.53 208.96,-121.13 242.56,-109.72"/>
<polygon fill="black" stroke="black" points="243.89,-112.96 252.24,-106.43 241.64,-106.33 243.89,-112.96"/>
</g>
<!-- Distance to Store&#45;&gt;Ticket Size (Net Val) -->
<g id="edge3" class="edge">
<title>Distance to Store&#45;&gt;Ticket Size (Net Val)</title>
<path fill="none" stroke="black" d="M104.85,-144.03C120.69,-124.58 148.84,-92.73 178.64,-72 198.36,-58.28 222.21,-46.82 243.36,-38.11"/>
<polygon fill="black" stroke="black" points="244.88,-41.27 252.86,-34.3 242.28,-34.77 244.88,-41.27"/>
</g>
<!-- Tier -->
<g id="node5" class="node">
<title>Tier</title>
<ellipse fill="none" stroke="black" cx="441.64" cy="-162" rx="29.5" ry="18"/>
<text text-anchor="middle" x="441.64" y="-158.3" font-family="Times,serif" font-size="14.00">Tier</text>
</g>
<!-- Tier&#45;&gt;Promotion Redeemed -->
<g id="edge5" class="edge">
<title>Tier&#45;&gt;Promotion Redeemed</title>
<path fill="none" stroke="black" d="M419.46,-150.22C398.45,-140 366.34,-124.4 340.36,-111.77"/>
<polygon fill="black" stroke="black" points="341.62,-108.49 331.1,-107.26 338.56,-114.78 341.62,-108.49"/>
</g>
<!-- Tier&#45;&gt;Ticket Size (Net Val) -->
<g id="edge4" class="edge">
<title>Tier&#45;&gt;Ticket Size (Net Val)</title>
<path fill="none" stroke="black" d="M441.06,-143.91C439.53,-124.35 434.27,-92.4 416.64,-72 402.91,-56.12 383.5,-44.79 364.32,-36.79"/>
<polygon fill="black" stroke="black" points="365.55,-33.51 354.96,-33.13 363,-40.03 365.55,-33.51"/>
</g>
</g>
</svg>
