<?xml version="1.0" encoding="UTF-8" standalone="no"?>
<!DOCTYPE svg PUBLIC "-//W3C//DTD SVG 1.1//EN"
 "http://www.w3.org/Graphics/SVG/1.1/DTD/svg11.dtd">
<!-- Generated by graphviz version 2.43.0 (0)
 -->
<!-- Title: %3 Pages: 1 -->
<svg width="655pt" height="188pt"
 viewBox="0.00 0.00 655.35 188.00" xmlns="http://www.w3.org/2000/svg" xmlns:xlink="http://www.w3.org/1999/xlink">
<g id="graph0" class="graph" transform="scale(1 1) rotate(0) translate(4 184)">
<title>%3</title>
<polygon fill="white" stroke="transparent" points="-4,4 -4,-184 651.35,-184 651.35,4 -4,4"/>
<!-- Major -->
<g id="node1" class="node">
<title>Major</title>
<ellipse fill="none" stroke="black" cx="38.35" cy="-162" rx="38.19" ry="18"/>
<text text-anchor="middle" x="38.35" y="-158.3" font-family="Times,serif" font-size="14.00">Major</text>
</g>
<!-- Donation -->
<g id="node2" class="node">
<title>Donation</title>
<ellipse fill="none" stroke="black" cx="172.35" cy="-18" rx="52.79" ry="18"/>
<text text-anchor="middle" x="172.35" y="-14.3" font-family="Times,serif" font-size="14.00">Donation</text>
</g>
<!-- Major&#45;&gt;Donation -->
<g id="edge1" class="edge">
<title>Major&#45;&gt;Donation</title>
<path fill="none" stroke="black" d="M55.4,-145.63C66.71,-135.26 81.72,-121.12 94.35,-108 114.73,-86.82 136.7,-61.51 152.11,-43.31"/>
<polygon fill="black" stroke="black" points="154.93,-45.39 158.7,-35.48 149.58,-40.88 154.93,-45.39"/>
</g>
<!-- Salary -->
<g id="node3" class="node">
<title>Salary</title>
<ellipse fill="none" stroke="black" cx="45.35" cy="-90" rx="40.09" ry="18"/>
<text text-anchor="middle" x="45.35" y="-86.3" font-family="Times,serif" font-size="14.00">Salary</text>
</g>
<!-- Major&#45;&gt;Salary -->
<g id="edge9" class="edge">
<title>Major&#45;&gt;Salary</title>
<path fill="none" stroke="black" d="M40.08,-143.7C40.85,-135.98 41.78,-126.71 42.64,-118.11"/>
<polygon fill="black" stroke="black" points="46.12,-118.4 43.64,-108.1 39.16,-117.71 46.12,-118.4"/>
</g>
<!-- Sports Pass -->
<g id="node5" class="node">
<title>Sports Pass</title>
<ellipse fill="none" stroke="black" cx="324.35" cy="-90" rx="65.79" ry="18"/>
<text text-anchor="middle" x="324.35" y="-86.3" font-family="Times,serif" font-size="14.00">Sports Pass</text>
</g>
<!-- Major&#45;&gt;Sports Pass -->
<g id="edge5" class="edge">
<title>Major&#45;&gt;Sports Pass</title>
<path fill="none" stroke="black" d="M67.35,-150.09C73.58,-147.93 80.14,-145.78 86.35,-144 145.03,-127.14 213.14,-112.45 261.43,-102.84"/>
<polygon fill="black" stroke="black" points="262.29,-106.24 271.42,-100.87 260.93,-99.37 262.29,-106.24"/>
</g>
<!-- Salary&#45;&gt;Donation -->
<g id="edge2" class="edge">
<title>Salary&#45;&gt;Donation</title>
<path fill="none" stroke="black" d="M69.83,-75.5C88.88,-65 115.57,-50.29 136.95,-38.51"/>
<polygon fill="black" stroke="black" points="138.67,-41.56 145.74,-33.66 135.3,-35.43 138.67,-41.56"/>
</g>
<!-- Parent Alumni -->
<g id="node4" class="node">
<title>Parent Alumni</title>
<ellipse fill="none" stroke="black" cx="172.35" cy="-162" rx="77.19" ry="18"/>
<text text-anchor="middle" x="172.35" y="-158.3" font-family="Times,serif" font-size="14.00">Parent Alumni</text>
</g>
<!-- Parent Alumni&#45;&gt;Donation -->
<g id="edge3" class="edge">
<title>Parent Alumni&#45;&gt;Donation</title>
<path fill="none" stroke="black" d="M172.35,-143.87C172.35,-119.67 172.35,-75.21 172.35,-46.39"/>
<polygon fill="black" stroke="black" points="175.85,-46.19 172.35,-36.19 168.85,-46.19 175.85,-46.19"/>
</g>
<!-- Parent Alumni&#45;&gt;Sports Pass -->
<g id="edge6" class="edge">
<title>Parent Alumni&#45;&gt;Sports Pass</title>
<path fill="none" stroke="black" d="M205.7,-145.64C228.46,-135.16 258.76,-121.2 283.05,-110.02"/>
<polygon fill="black" stroke="black" points="284.75,-113.09 292.37,-105.73 281.82,-106.73 284.75,-113.09"/>
</g>
<!-- Sports Pass&#45;&gt;Donation -->
<g id="edge4" class="edge">
<title>Sports Pass&#45;&gt;Donation</title>
<path fill="none" stroke="black" d="M292.11,-74.15C268.62,-63.34 236.67,-48.62 211.67,-37.11"/>
<polygon fill="black" stroke="black" points="213.01,-33.88 202.47,-32.87 210.09,-40.23 213.01,-33.88"/>
</g>
<!-- GPA -->
<g id="node6" class="node">
<title>GPA</title>
<ellipse fill="none" stroke="black" cx="545.35" cy="-162" rx="29.8" ry="18"/>
<text text-anchor="middle" x="545.35" y="-158.3" font-family="Times,serif" font-size="14.00">GPA</text>
</g>
<!-- GPA&#45;&gt;Sports Pass -->
<g id="edge7" class="edge">
<title>GPA&#45;&gt;Sports Pass</title>
<path fill="none" stroke="black" d="M522.03,-150.26C516.91,-148.07 511.49,-145.86 506.35,-144 464.91,-129 417.02,-115.19 380.77,-105.43"/>
<polygon fill="black" stroke="black" points="381.44,-101.99 370.87,-102.79 379.63,-108.75 381.44,-101.99"/>
</g>
<!-- Intramural Participant -->
<g id="node7" class="node">
<title>Intramural Participant</title>
<ellipse fill="none" stroke="black" cx="382.35" cy="-162" rx="115.08" ry="18"/>
<text text-anchor="middle" x="382.35" y="-158.3" font-family="Times,serif" font-size="14.00">Intramural Participant</text>
</g>
<!-- Intramural Participant&#45;&gt;Sports Pass -->
<g id="edge8" class="edge">
<title>Intramural Participant&#45;&gt;Sports Pass</title>
<path fill="none" stroke="black" d="M368.31,-144.05C361.25,-135.54 352.57,-125.07 344.8,-115.68"/>
<polygon fill="black" stroke="black" points="347.33,-113.26 338.26,-107.79 341.94,-117.72 347.33,-113.26"/>
</g>
<!-- U -->
<g id="node8" class="node">
<title>U</title>
<ellipse fill="none" stroke="black" cx="620.35" cy="-162" rx="27" ry="18"/>
<text text-anchor="middle" x="620.35" y="-158.3" font-family="Times,serif" font-size="14.00">U</text>
</g>
<!-- U&#45;&gt;Donation -->
<g id="edge11" class="edge">
<title>U&#45;&gt;Donation</title>
<path fill="none" stroke="black" stroke-dasharray="5,2" d="M599.14,-150.68C594.31,-148.42 589.17,-146.08 584.35,-144 503.29,-109.14 483.63,-98.1 399.35,-72 341.36,-54.05 273.4,-38.94 227.05,-29.5"/>
<polygon fill="black" stroke="black" points="227.71,-26.06 217.21,-27.52 226.32,-32.93 227.71,-26.06"/>
</g>
<!-- U&#45;&gt;Sports Pass -->
<g id="edge10" class="edge">
<title>U&#45;&gt;Sports Pass</title>
<path fill="none" stroke="black" stroke-dasharray="5,2" d="M599.76,-150.24C594.8,-147.94 589.46,-145.7 584.35,-144 520.59,-122.79 445.09,-108.55 391.92,-100.21"/>
<polygon fill="black" stroke="black" points="392.34,-96.74 381.93,-98.68 391.28,-103.66 392.34,-96.74"/>
</g>
</g>
</svg>
