<?xml version="1.0" encoding="UTF-8" standalone="no"?>
<!DOCTYPE svg PUBLIC "-//W3C//DTD SVG 1.1//EN"
 "http://www.w3.org/Graphics/SVG/1.1/DTD/svg11.dtd">
<!-- Generated by graphviz version 2.43.0 (0)
 -->
<!-- Title: %3 Pages: 1 -->
<svg width="94pt" height="260pt"
 viewBox="0.00 0.00 93.60 260.00" xmlns="http://www.w3.org/2000/svg" xmlns:xlink="http://www.w3.org/1999/xlink">
<g id="graph0" class="graph" transform="scale(1 1) rotate(0) translate(4 256)">
<title>%3</title>
<polygon fill="white" stroke="transparent" points="-4,4 -4,-256 89.6,-256 89.6,4 -4,4"/>
<!-- T -->
<g id="node1" class="node">
<title>T</title>
<ellipse fill="none" stroke="black" cx="56" cy="-90" rx="27" ry="18"/>
<text text-anchor="middle" x="56" y="-86.3" font-family="Times,serif" font-size="14.00">T</text>
</g>
<!-- Y -->
<g id="node2" class="node">
<title>Y</title>
<ellipse fill="none" stroke="black" cx="27" cy="-18" rx="27" ry="18"/>
<text text-anchor="middle" x="27" y="-14.3" font-family="Times,serif" font-size="14.00">Y</text>
</g>
<!-- T&#45;&gt;Y -->
<g id="edge1" class="edge">
<title>T&#45;&gt;Y</title>
<path fill="none" stroke="black" d="M49.13,-72.41C45.73,-64.22 41.56,-54.14 37.75,-44.95"/>
<polygon fill="black" stroke="black" points="40.88,-43.37 33.82,-35.47 34.42,-46.05 40.88,-43.37"/>
</g>
<!-- X -->
<g id="node3" class="node">
<title>X</title>
<ellipse fill="none" stroke="black" cx="28" cy="-234" rx="27" ry="18"/>
<text text-anchor="middle" x="28" y="-230.3" font-family="Times,serif" font-size="14.00">X</text>
</g>
<!-- X&#45;&gt;Y -->
<g id="edge2" class="edge">
<title>X&#45;&gt;Y</title>
<path fill="none" stroke="black" d="M24.35,-215.91C22.32,-205.57 20.02,-192.09 19,-180 17.65,-163.93 18.85,-87.88 20,-72 20.62,-63.54 21.68,-54.36 22.8,-46.06"/>
<polygon fill="black" stroke="black" points="26.27,-46.53 24.22,-36.13 19.34,-45.54 26.27,-46.53"/>
</g>
<!-- e(x) -->
<g id="node4" class="node">
<title>e(x)</title>
<ellipse fill="none" stroke="black" cx="57" cy="-162" rx="28.7" ry="18"/>
<text text-anchor="middle" x="57" y="-158.3" font-family="Times,serif" font-size="14.00">e(x)</text>
</g>
<!-- X&#45;&gt;e(x) -->
<g id="edge3" class="edge">
<title>X&#45;&gt;e(x)</title>
<path fill="none" stroke="black" d="M34.87,-216.41C38.22,-208.34 42.32,-198.43 46.08,-189.35"/>
<polygon fill="black" stroke="black" points="49.38,-190.53 49.98,-179.96 42.91,-187.86 49.38,-190.53"/>
</g>
<!-- e(x)&#45;&gt;T -->
<g id="edge4" class="edge">
<title>e(x)&#45;&gt;T</title>
<path fill="none" stroke="black" d="M56.75,-143.7C56.64,-135.98 56.51,-126.71 56.39,-118.11"/>
<polygon fill="black" stroke="black" points="59.89,-118.05 56.24,-108.1 52.89,-118.15 59.89,-118.05"/>
</g>
</g>
</svg>
